<svg xmlns="http://www.w3.org/2000/svg" width="1000" height="640" viewBox="0 0 1000 640" role="img" aria-label="Módulos depois da limpeza">
  <defs>
    <linearGradient id="g1000" x1="0" y1="0" x2="1" y2="1">
      <stop offset="0" stop-color="#161615"/>
      <stop offset="1" stop-color="#0E0E0D"/>
    </linearGradient>
    <linearGradient id="gg1000" x1="0" y1="0" x2="0" y2="1">
      <stop offset="0" stop-color="#BEA580" stop-opacity="0.14"/>
      <stop offset="1" stop-color="#BEA580" stop-opacity="0.03"/>
    </linearGradient>
  </defs>
  <rect width="1000" height="640" fill="url(#g1000)"/>
  <rect width="1000" height="640" fill="url(#gg1000)"/>
  <g opacity="0.35">
    <path d="M0 640 L160.0 396.8 L300.0 499.20000000000005 L500.0 320.0 L660.0 448.0 L820.0 358.40000000000003 L1000 460.79999999999995 V640 Z" fill="none" stroke="#2C2A26" stroke-width="1.5"/>
  </g>
  <text x="500.0" y="54" text-anchor="middle" font-family="Inter, Arial, sans-serif" font-size="21" letter-spacing="4" fill="#ECE2CB" fill-opacity="0.5" font-weight="600">LUMAS · ENERGIA SOLAR</text>
  <rect x="1.5" y="1.5" width="997" height="637" rx="10" fill="none" stroke="#2C2A26"/>
  
  
  <rect x="452.0" y="262.0" width="96" height="96" rx="16" fill="none" stroke="#BEA580" stroke-opacity="0.55" stroke-width="24"/>

  <path d="M478.0 346.0 l12 -14 h44 l-12 14 z" fill="#BEA580" fill-opacity="0.75"/>
  <path d="M478.0 346.0 l-14 -16 m14 16 l14 -16 m16 0 l54 0 m-40 16 l12 -16 m14 -16 l-54 0" fill="none" stroke="#BEA580" stroke-opacity="0.7" stroke-width="24"/>
  <path d="M486.0 286.0 a20 20 0 1 0 6 -6 l4 6 -6 4 z" fill="#BEA580" fill-opacity="0.75"/>

  <text x="500.0" y="382.0" text-anchor="middle" font-family="Inter, Arial, sans-serif" font-size="32" fill="#F6F3EE" fill-opacity="0.85" font-weight="600">DEPOIS</text>
  <text x="500.0" y="428.0" text-anchor="middle" font-family="Inter, Arial, sans-serif" font-size="21" fill="#F6F3EE" fill-opacity="0.45">Substitua por assets/images/…</text>
</svg>
